<mxfile host="app.diagrams.net" agent="Mozilla/5.0 (X11; Linux x86_64) AppleWebKit/537.36 (KHTML, like Gecko) Chrome/126.0.0.0 Safari/537.36" version="24.8.3">
  <diagram name="Página-1" id="PAXD5wM3sn64IjcVjdGA">
    <mxGraphModel dx="882" dy="804" grid="1" gridSize="10" guides="1" tooltips="1" connect="1" arrows="1" fold="1" page="1" pageScale="1" pageWidth="827" pageHeight="1169" math="0" shadow="0">
      <root>
        <mxCell id="0" />
        <mxCell id="1" parent="0" />
        <mxCell id="EoZndFxqjdCtMJ9A0wRP-6" value="&lt;p style=&quot;line-height: 18.4px; margin-bottom: 0.28cm; direction: ltr; background: transparent; font-family: Aptos, serif; font-size: 12pt; text-wrap: wrap;&quot; class=&quot;western&quot;&gt;&lt;br&gt;&lt;/p&gt;&lt;p style=&quot;line-height: 18.4px; margin-bottom: 0.28cm; direction: ltr; background: transparent; font-family: Aptos, serif; font-size: 12pt; text-wrap: wrap;&quot; class=&quot;western&quot;&gt;&lt;br&gt;&lt;br&gt;&lt;/p&gt;" style="text;html=1;align=left;verticalAlign=middle;resizable=0;points=[];autosize=1;strokeColor=none;fillColor=none;" vertex="1" parent="1">
          <mxGeometry x="90" y="590" width="20" height="110" as="geometry" />
        </mxCell>
        <mxCell id="EoZndFxqjdCtMJ9A0wRP-7" value="&lt;p style=&quot;line-height: 18.4px; margin-bottom: 0.25cm; direction: ltr; background: transparent; font-family: Aptos, serif; font-size: 12pt; font-variant-numeric: normal; font-variant-east-asian: normal; font-variant-alternates: normal; font-variant-position: normal; text-wrap: wrap;&quot; class=&quot;western&quot;&gt;ADMINISTRADORES (&lt;b&gt;Num&lt;/b&gt;_&lt;b&gt;Colegiado&lt;/b&gt;,&amp;nbsp;&lt;u&gt;DNI&lt;/u&gt;, Nombre, Honorarios)&lt;/p&gt;&lt;p style=&quot;line-height: 18.4px; margin-bottom: 0.25cm; direction: ltr; background: transparent; font-family: Aptos, serif; font-size: 12pt; font-variant-numeric: normal; font-variant-east-asian: normal; font-variant-alternates: normal; font-variant-position: normal; text-wrap: wrap;&quot; class=&quot;western&quot;&gt;&lt;span lang=&quot;es-ES&quot;&gt;COMUNIDADES&amp;nbsp;(&lt;/span&gt;&lt;span lang=&quot;es-ES&quot;&gt;&lt;b&gt;Codigo&lt;/b&gt;&lt;/span&gt;&lt;span lang=&quot;es-ES&quot;&gt;,&lt;/span&gt;&amp;nbsp;&lt;span lang=&quot;es-ES&quot;&gt;Nombre, Calle, CodPostal,&lt;/span&gt;&lt;/p&gt;&lt;p style=&quot;line-height: 18.4px; margin-bottom: 0.25cm; direction: ltr; background: transparent; font-family: Aptos, serif; font-size: 12pt; font-variant-numeric: normal; font-variant-east-asian: normal; font-variant-alternates: normal; font-variant-position: normal; text-wrap: wrap;&quot; class=&quot;western&quot;&gt;&lt;font color=&quot;#ff0000&quot;&gt;&lt;span lang=&quot;es-ES&quot;&gt;Num&lt;/span&gt;&lt;/font&gt;&lt;span lang=&quot;es-ES&quot;&gt;_&lt;/span&gt;&lt;font color=&quot;#ff0000&quot;&gt;&lt;span lang=&quot;es-ES&quot;&gt;Colegiado&amp;nbsp;&lt;/span&gt;&lt;/font&gt;&lt;span lang=&quot;es-ES&quot;&gt;(ADMINISTRADORES),&amp;nbsp;&lt;/span&gt;&lt;font color=&quot;#ff0000&quot;&gt;&lt;span lang=&quot;es-ES&quot;&gt;IdCuenta&amp;nbsp;&lt;/span&gt;&lt;/font&gt;&lt;span lang=&quot;es-ES&quot;&gt;(CUENTAS))&lt;/span&gt;&lt;/p&gt;&lt;p style=&quot;line-height: 18.4px; margin-bottom: 0.25cm; direction: ltr; background: transparent; font-family: Aptos, serif; font-size: 12pt; font-variant-numeric: normal; font-variant-east-asian: normal; font-variant-alternates: normal; font-variant-position: normal; text-wrap: wrap;&quot; class=&quot;western&quot;&gt;&lt;span lang=&quot;es-ES&quot;&gt;PROPIEDADES (&lt;/span&gt;&lt;span lang=&quot;es-ES&quot;&gt;&lt;b&gt;Identificador&lt;/b&gt;&lt;/span&gt;&lt;span lang=&quot;es-ES&quot;&gt;, Portal, Planta, Letra,&amp;nbsp;&lt;/span&gt;&lt;font color=&quot;#ff0000&quot;&gt;&lt;span lang=&quot;es-ES&quot;&gt;Codigo&amp;nbsp;&lt;/span&gt;&lt;/font&gt;&lt;span lang=&quot;es-ES&quot;&gt;(COMUNIDADES))&lt;/span&gt;&lt;/p&gt;&lt;p style=&quot;line-height: 18.4px; margin-bottom: 0.25cm; direction: ltr; background: transparent; font-family: Aptos, serif; font-size: 12pt; font-variant-numeric: normal; font-variant-east-asian: normal; font-variant-alternates: normal; font-variant-position: normal; text-wrap: wrap;&quot; class=&quot;western&quot;&gt;&lt;span lang=&quot;es-ES&quot;&gt;VIVIENDAS (&lt;/span&gt;&lt;font color=&quot;#ff0000&quot;&gt;&lt;span lang=&quot;es-ES&quot;&gt;&lt;b&gt;Identificador&amp;nbsp;&lt;/b&gt;&lt;/span&gt;&lt;/font&gt;&lt;span lang=&quot;es-ES&quot;&gt;(PROPIEDADES), Num_habitaciones)&lt;/span&gt;&lt;/p&gt;&lt;p style=&quot;line-height: 18.4px; margin-bottom: 0.25cm; direction: ltr; background: transparent; font-family: Aptos, serif; font-size: 12pt; font-variant-numeric: normal; font-variant-east-asian: normal; font-variant-alternates: normal; font-variant-position: normal; text-wrap: wrap;&quot; class=&quot;western&quot;&gt;&lt;span lang=&quot;es-ES&quot;&gt;OFICINAS (&lt;/span&gt;&lt;font color=&quot;#ff0000&quot;&gt;&lt;span lang=&quot;es-ES&quot;&gt;&lt;b&gt;Identificador&amp;nbsp;&lt;/b&gt;&lt;/span&gt;&lt;/font&gt;&lt;span lang=&quot;es-ES&quot;&gt;(PROPIEDADES), Actividad)&lt;/span&gt;&lt;/p&gt;&lt;p style=&quot;line-height: 18.4px; margin-bottom: 0.25cm; direction: ltr; background: transparent; font-family: Aptos, serif; font-size: 12pt; font-variant-numeric: normal; font-variant-east-asian: normal; font-variant-alternates: normal; font-variant-position: normal; text-wrap: wrap;&quot; class=&quot;western&quot;&gt;&lt;span lang=&quot;es-ES&quot;&gt;LOCALES (&lt;/span&gt;&lt;font color=&quot;#ff0000&quot;&gt;&lt;span lang=&quot;es-ES&quot;&gt;&lt;b&gt;Identificador&amp;nbsp;&lt;/b&gt;&lt;/span&gt;&lt;/font&gt;&lt;span lang=&quot;es-ES&quot;&gt;(PROPIEDADES), Horario)&lt;/span&gt;&lt;/p&gt;&lt;p style=&quot;line-height: 18.4px; margin-bottom: 0.25cm; direction: ltr; background: transparent; font-family: Aptos, serif; font-size: 12pt; font-variant-numeric: normal; font-variant-east-asian: normal; font-variant-alternates: normal; font-variant-position: normal; text-wrap: wrap;&quot; class=&quot;western&quot;&gt;&lt;span lang=&quot;es-ES&quot;&gt;COMPAÑÍAS (&lt;/span&gt;&lt;span lang=&quot;es-ES&quot;&gt;&lt;b&gt;Cif&lt;/b&gt;&lt;/span&gt;&lt;span lang=&quot;es-ES&quot;&gt;, Nombre, Sector)&lt;/span&gt;&lt;/p&gt;&lt;p style=&quot;line-height: 18.4px; margin-bottom: 0.25cm; direction: ltr; background: transparent; font-family: Aptos, serif; font-size: 12pt; font-variant-numeric: normal; font-variant-east-asian: normal; font-variant-alternates: normal; font-variant-position: normal; text-wrap: wrap;&quot; class=&quot;western&quot;&gt;&lt;span lang=&quot;es-ES&quot;&gt;RECIBOS (&lt;/span&gt;&lt;span lang=&quot;es-ES&quot;&gt;&lt;b&gt;NumRecibo&lt;/b&gt;&lt;/span&gt;&lt;span lang=&quot;es-ES&quot;&gt;, Fecha, Importe,&amp;nbsp;&lt;/span&gt;&lt;font color=&quot;#ff0000&quot;&gt;&lt;span lang=&quot;es-ES&quot;&gt;Cif&amp;nbsp;&lt;/span&gt;&lt;/font&gt;&lt;span lang=&quot;es-ES&quot;&gt;(COMPAÑÍAS),&amp;nbsp;&lt;/span&gt;&lt;font color=&quot;#ff0000&quot;&gt;&lt;span lang=&quot;es-ES&quot;&gt;IdCuenta&amp;nbsp;&lt;/span&gt;&lt;/font&gt;&lt;span lang=&quot;es-ES&quot;&gt;(CUENTAS))&lt;/span&gt;&lt;/p&gt;&lt;p style=&quot;line-height: 18.4px; margin-bottom: 0.25cm; direction: ltr; background: transparent; font-family: Aptos, serif; font-size: 12pt; font-variant-numeric: normal; font-variant-east-asian: normal; font-variant-alternates: normal; font-variant-position: normal; text-wrap: wrap;&quot; class=&quot;western&quot;&gt;&lt;span lang=&quot;es-ES&quot;&gt;CUENTAS (&lt;/span&gt;&lt;span lang=&quot;es-ES&quot;&gt;&lt;b&gt;IdCuenta&lt;/b&gt;&lt;/span&gt;&lt;span lang=&quot;es-ES&quot;&gt;, Saldo,&amp;nbsp;&lt;/span&gt;&lt;font color=&quot;#ff0000&quot;&gt;&lt;span lang=&quot;es-ES&quot;&gt;CodigoBanco&amp;nbsp;&lt;/span&gt;&lt;/font&gt;&lt;span lang=&quot;es-ES&quot;&gt;(BANCOS))&lt;/span&gt;&lt;/p&gt;&lt;p style=&quot;line-height: 18.4px; margin-bottom: 0.25cm; direction: ltr; background: transparent; font-family: Aptos, serif; font-size: 12pt; font-variant-numeric: normal; font-variant-east-asian: normal; font-variant-alternates: normal; font-variant-position: normal; text-wrap: wrap;&quot; class=&quot;western&quot;&gt;&lt;span lang=&quot;es-ES&quot;&gt;BANCOS&amp;nbsp;(&lt;/span&gt;&lt;span lang=&quot;es-ES&quot;&gt;&lt;b&gt;Codigo&lt;/b&gt;&lt;/span&gt;&lt;span lang=&quot;es-ES&quot;&gt;,&amp;nbsp;Nombre, Persona_Contacto)&lt;/span&gt;&lt;/p&gt;" style="text;html=1;align=left;verticalAlign=middle;resizable=0;points=[];autosize=1;strokeColor=none;fillColor=none;" vertex="1" parent="1">
          <mxGeometry x="20" y="270" width="580" height="400" as="geometry" />
        </mxCell>
        <mxCell id="EoZndFxqjdCtMJ9A0wRP-8" value="2FN:&lt;div&gt;&lt;br&gt;&lt;/div&gt;&lt;div&gt;&lt;br&gt;&lt;/div&gt;" style="text;html=1;align=center;verticalAlign=middle;resizable=0;points=[];autosize=1;strokeColor=none;fillColor=none;" vertex="1" parent="1">
          <mxGeometry x="10" y="743" width="50" height="60" as="geometry" />
        </mxCell>
      </root>
    </mxGraphModel>
  </diagram>
</mxfile>
